<svg
 xmlns="http://www.w3.org/2000/svg"
 xmlns:xlink="http://www.w3.org/1999/xlink"
 width="18px" height="18px">
<path fill-rule="evenodd"  fill="currentColor"
 d="M17.171,14.049 C17.269,14.149 17.342,14.259 17.391,14.382 C17.459,14.552 17.476,14.729 17.445,14.912 C17.413,15.095 17.331,15.258 17.199,15.401 L16.576,16.062 C16.332,16.316 16.072,16.533 15.797,16.714 C15.522,16.894 15.232,17.045 14.926,17.166 C14.435,17.361 13.916,17.472 13.371,17.499 C12.826,17.526 12.274,17.474 11.715,17.344 C11.156,17.213 10.598,17.008 10.042,16.729 C9.487,16.449 8.951,16.104 8.436,15.693 C8.126,15.475 7.789,15.219 7.425,14.926 C7.117,14.676 6.757,14.372 6.347,14.015 C5.936,13.658 5.503,13.252 5.049,12.798 C4.589,12.347 4.207,11.944 3.903,11.591 C3.598,11.238 3.353,10.941 3.168,10.701 C2.952,10.420 2.782,10.174 2.658,9.961 C2.367,9.591 2.110,9.211 1.886,8.819 C1.663,8.427 1.470,8.028 1.309,7.621 C1.098,7.089 0.948,6.557 0.860,6.022 C0.771,5.488 0.753,4.966 0.806,4.455 C0.858,3.945 0.988,3.455 1.195,2.987 C1.401,2.519 1.694,2.088 2.074,1.694 L2.690,1.048 C2.789,0.950 2.898,0.878 3.018,0.830 C3.186,0.764 3.361,0.748 3.542,0.784 C3.724,0.819 3.884,0.905 4.021,1.041 L6.780,3.760 C6.878,3.859 6.951,3.968 6.998,4.088 C7.068,4.263 7.087,4.443 7.056,4.628 C7.024,4.813 6.941,4.976 6.806,5.115 L5.587,6.393 C5.426,6.562 5.328,6.755 5.292,6.972 C5.257,7.189 5.279,7.398 5.360,7.601 C5.421,7.755 5.507,7.888 5.619,8.000 L10.288,12.621 C10.469,12.798 10.664,12.904 10.873,12.938 C11.082,12.972 11.287,12.950 11.486,12.871 C11.621,12.817 11.747,12.731 11.864,12.614 L13.084,11.336 C13.181,11.239 13.289,11.166 13.409,11.119 C13.573,11.053 13.747,11.038 13.931,11.073 C14.114,11.109 14.275,11.192 14.414,11.326 L17.171,14.049 Z"/>
</svg>